<svg xmlns="http://www.w3.org/2000/svg" width="40" height="36" viewBox="0 0 40 36">
    <path fill="#FFF" fill-rule="evenodd" d="M39.937 15.517c-.148-.488-.407-.893-.876-1.128-.186-.093-.208-.08-.209.125v3.001c0 .2.06.249.23.14.188-.121.367-.274.51-.446.221-.267.379-.617.401-.936a2.454 2.454 0 0 0-.056-.756zm-22.259 1.299c-.015-.039-.07-.033-.078.008-.02.122-.092.478-.082.501.01.024.223-.001.293-.015.01-.002.017-.087.004-.127a8.292 8.292 0 0 0-.137-.367zm2.035-2.202c-.23.122-.456.253-.685.378-.091.05-.096.097-.016.163.182.152.362.305.54.46.07.06.1.03.115-.04l.184-.837c.007-.15-.03-.18-.138-.124zm-.828.785a.522.522 0 0 0-.215-.023c-.302.038-.88.613-.84.914.017.125.121.655.314.92.162.223.437.271.643.088.57-.508.65-1.041.664-1.08-.004-.3-.32-.742-.566-.819zm2.038 1.864c0-.14.008-.279-.002-.417a.874.874 0 0 0-.626-.794c-.265-.082-.464.006-.536.27-.128.47-.22.949-.158 1.443.034.27.172.399.442.37.21-.023.417-.07.624-.115.162-.036.25-.148.255-.316.005-.147.001-.294.001-.441zm-1.496-5.243a.334.334 0 0 0-.34.226.74.74 0 0 0 .409.977c.112.044.235.066.355.08.612.073 1.176-.121 1.736-.326.175-.064.263-.247.24-.44-.033-.265-.218-.44-.518-.464a50.71 50.71 0 0 0-1.882-.053zm-8.623 2.405c-.196 0-.232.05-.233.287-.002.812-.002 1.624 0 2.435 0 .245.026.271.265.272.53.002 1.06-.006 1.59.005.165.003.227-.057.26-.21.193-.915.566-1.756 1.058-2.547.042-.068.08-.138.14-.244-1.058 0-2.07-.002-3.08.002zm6.742-2.728c.034.26.102.298.359.27.476-.054.953-.104 1.43-.147.3-.027.602-.032.901-.061.257-.025.34-.102.377-.339.11-.685.086-1.37-.024-2.052-.042-.263-.187-.386-.45-.393a9.338 9.338 0 0 0-1.945.128c-.392.072-.533.2-.6.596-.063.37-.086 1.707-.048 1.998zM5.14 10.56c.127.003.17-.051.183-.167a8.64 8.64 0 0 1 .088-.558c.134-.714.566-1.145 1.263-1.301.244-.055.499-.084.75-.089.811-.018.623.077 1.173-.555a14.907 14.907 0 0 1 4.423-3.474c.256-.133.334-.285.307-.557-.062-.603-.101-1.208-.15-1.811-.023-.305-.025-.308-.3-.182C9.087 3.588 6.23 6.303 4.29 9.997c-.09.172-.17.35-.272.56.406 0 .765-.004 1.123.003zm29.882 9.663c0 .263.001.263.27.264h1.32c.098 0 .196-.007.294-.009.72-.015 1.134-.43 1.134-1.152.002-2.253.002-4.507 0-6.76 0-.138-.017-.278-.043-.414-.093-.465-.422-.76-.894-.806a2.862 2.862 0 0 0-.268-.01h-1.566c-.246.001-.247.002-.247.26V20.223zm-29.646-8.58c0-.279-.034-.31-.311-.311-.514-.004-1.027-.01-1.54-.008-.12 0-.246.012-.362.045-.545.152-.855.603-.852 1.225.004.754.011 1.507.012 2.26.002 1.516-.002 3.031.002 4.546.001.625.436 1.08 1.049 1.093.578.013 1.157.011 1.736.012.206 0 .256-.053.265-.262.003-.065.001-.131.001-.197V15.92v-4.276zm9.373 2.382c.069-.079.139-.156.205-.236.197-.24.385-.488.59-.721.35-.4.76-.714 1.285-.855.408-.108.413-.122.366-.54-.002-.024-.006-.048-.01-.072-.156-1.086-.32-2.17-.466-3.257-.27-2.02-.526-4.042-.797-6.061-.08-.594-.225-1.175-.486-1.717a1.241 1.241 0 0 0-.338-.437c-.242-.188-.523-.151-.784-.014-.26.137-.405.358-.395.656.031.867.055 1.735.112 2.601.094 1.422.225 2.84.315 4.262.098 1.528.168 3.058.249 4.587.032.596.06 1.192.091 1.788l.063.016zM16.523.697c-.141.011-.172.077-.145.211.133.641.258 1.283.388 1.925.041.204.057.209.257.177.418-.068.835-.142 1.255-.194a14.34 14.34 0 0 1 3.682.024c1.256.167 2.477.482 3.653.961.133.054.192.036.262-.097a3.49 3.49 0 0 1 .42-.659c.42-.483.958-.66 1.587-.525.624.134.982.546 1.149 1.144.035.126.062.257.065.387.013.441.022.883.014 1.325-.005.253.052.445.269.613.841.653 1.596 1.4 2.277 2.222.13.157.273.238.482.229.285-.013.571-.01.856.003.892.038 1.514.573 1.693 1.452.034.168.063.34.074.51.01.14.073.172.202.175.306.004.97.009 1.13 0-.062-.155-.173-.345-.25-.491-.879-1.679-1.959-3.212-3.293-4.557-1.382-1.393-2.937-2.563-4.723-3.37C23.592.25 19.949.413 16.523.697zm13.69 20.675c0 .09-.002.18.004.27.035.568.378.938.941.966.586.029 1.173.039 1.76.026.585-.013.956-.33 1.06-.865.024-.128.02-.261.02-.392 0-3.474-.003-6.948-.004-10.422 0-.254.01-.509-.003-.762-.028-.517-.384-.96-.833-.976a27.4 27.4 0 0 0-2.1.008c-.395.017-.665.265-.77.651a2.38 2.38 0 0 0-.072.606c-.005 1.82-.003 3.638-.003 5.457v5.433zM6.091 20.5c0 .377-.004.754 0 1.13a.98.98 0 0 0 1.02.99c.097-.002.195-.014.293-.012.415.008.83.011 1.245.032.654.032 1.117-.334 1.218-.983.018-.12.028-.244.028-.366-.003-1.385-.012-2.77-.014-4.154-.002-2.205 0-4.409-.002-6.613 0-.155-.005-.312-.027-.465-.067-.48-.384-.813-.856-.828a27.762 27.762 0 0 0-2.053.01c-.465.019-.734.297-.823.764a1.85 1.85 0 0 0-.028.342c-.002 1.86-.001 3.72-.001 5.58V20.5zm15.197-3.129c.012.045.078.048.089.003.281-1.143 1.413-4.468 1.658-5.257.04-.126.22-.107.16.089-.345 1.102-1.365 4.419-1.55 5.1-.008.019-.001.043-.001.067.031.005.055.011.079.012h7.56c.193 0 .196-.004.196-.212.002-.566.001-1.131.001-1.697 0-.295-.003-.59.001-.885.002-.114 0-.159-.154-.16l-5.995.001h-.325c.077-.231.15-.43.21-.631.038-.13.105-.178.244-.175.168.004 2.247.02 3.205.02.386 0 .386 0 .439-.37.003-.025.008-.05.013-.074.224-1.256.451-2.512.673-3.768.25-1.42.483-2.841.606-4.279.037-.433.03-.868-.082-1.294-.121-.46-.433-.683-.903-.642-.25.022-.439.156-.591.352-.296.38-.421.825-.514 1.286-.515 2.534-1.098 5.052-1.82 7.536-.036.124-.04.336-.194.316-.121-.015-.134-.218-.132-.362.003-.344-.002-.688.002-1.032.003-.294-.13-.497-.387-.63-.642-.33-1.32-.508-2.046-.49-.272.006-.367.064-.458.317-.09.254-.171.512-.25.77-.128.418-.177.473.304.5.62.034.837.46.765 1.013-.053.405-.292.717-.634.934-.317.2-.646.381-.972.567-.155.087-.283.193-.328.375-.066.263-.132.525-.2.788a.227.227 0 0 0 .135.27c.114.043.23.084.343.127.417.156.672.445.743.894.024.15.067.458.11.621zm.698 4.444c-.018.123-.17.11-.166-.013.011-.326-.013-.819-.021-.897-.039-.4-.191-.621-.46-.925-.071-.082-.203-.185-.107-.277.084-.081.209.03.294.106.194.173.385.49.46.8.074.312.048.862 0 1.206zm-2.652 4.982c-.105-.03-.052-.208.057-.2h.003c1.211.347 2.044-1.645 2.325-3.712.011-.079.12-.046.125.034.028.41-.596 4.425-2.51 3.878zm2.558 4.583l.187 1.739-1.612-.746-1.64.75.185-1.744-1.171-1.291 1.752-.377.85-1.484.866 1.475 1.768.384-1.185 1.294zm-.475-17.927c.06-.037.02-.128-.048-.11-.123.032-1.327.358-1.807.197-.52-.176-.823-.556-.766-1.094.023-.23-.045-.327-.357-.31-.31.016-.826.18-1.24.264-.555.113-1.037.361-1.403.792-.679.798-1.332 1.618-1.809 2.56-.867 1.712-.986 3.46-.222 5.245.234.546.47 1.09.699 1.639.478 1.147.978 2.286 1.433 3.443a8.26 8.26 0 0 1 .573 3.22c-.016.77-.003 1.54-.004 2.311 0 .36-.002.722.001 1.082.001.122-.027.157-.157.112-.315-.11-.637-.198-.955-.301a15.208 15.208 0 0 1-3.934-1.938c-1.695-1.167-3.074-2.636-4.192-4.352a14.88 14.88 0 0 1-1.878-4.195c-.052-.19-.11-.377-.168-.565-.036-.121-.108-.196-.246-.195-.22.002-.44-.008-.659-.004-.472.008-.945.03-1.411-.082-.298-.071-.302-.07-.248.238.363 2.069 1.055 4.017 2.139 5.817 1.86 3.087 4.376 5.46 7.631 7.012 2.099 1 4.31 1.592 6.631 1.73 1.52.09 3.03-.015 4.524-.33 2.11-.443 4.097-1.196 5.92-2.359 2.937-1.875 5.149-4.405 6.658-7.552a15.952 15.952 0 0 0 1.358-4.444c.026-.169.019-.165-.136-.147-.34.04-.679.086-1.019.1-.407.016-.815-.006-1.222.003-.267.007-.266.019-.332.278-.692 2.714-1.967 5.104-3.92 7.116a15.122 15.122 0 0 1-4.978 3.41c-.509.217-1.03.402-1.587.618v-.316c0-1.308.002-2.617 0-3.926 0-.298-.012-.786-.024-1.084-.015-.352-.047-.354-.382-.305a11.39 11.39 0 0 1-.903.089.844.844 0 0 1-.316-.032.088.088 0 0 1-.029-.017c-.073-.061-.046-.18.042-.215a.178.178 0 0 1 .014-.005c.068-.023.155-.006.228-.011.284-.021.563-.027.839-.087.663-.145 1.134-.557 1.433-1.162.47-.953.79-1.958.965-3.004.231-1.38.428-2.767.521-4.166.018-.257.022-.258-.237-.258-1.697-.001-3.394 0-5.09-.002-.24 0-.47.035-.69.134-.09.04-.183.071-.278.096-.29.076-.56.046-.814-.137a.54.54 0 0 0-.29-.088c-.49-.009-.98-.004-1.47-.004a.42.42 0 0 0-.417.39c-.05.662-.477 1.034-.985 1.354-.184.09-.276-.05-.177-.121.626-.446.824-.714.882-1.18.062-.504.142-1.005.19-1.51.058-.617.256-1.159.7-1.607.436-.442.925-.8 1.489-1.057.408-.186.823-.357 1.226-.554.143-.07.463-.27.704-.424zM.063 15.411c.148-.487.407-.892.876-1.128.186-.093.208-.078.209.126v3c0 .2-.06.25-.23.14a2.253 2.253 0 0 1-.51-.445c-.221-.267-.379-.618-.401-.936a2.454 2.454 0 0 1 .056-.757z"/>
</svg>
